<svg xmlns="http://www.w3.org/2000/svg" viewBox="0 0 512 512" width="512" height="512">
  <defs>
    <linearGradient id="pwaGrad" x1="0%" y1="100%" x2="100%" y2="0%">
      <stop offset="0%" stop-color="#4f46e5" />
      <stop offset="100%" stop-color="#8b5cf6" />
    </linearGradient>
    <filter id="pwaShadow" x="-10%" y="-10%" width="120%" height="125%">
      <feDropShadow dx="0" dy="8" stdDeviation="12" flood-color="#4f46e5" flood-opacity="0.3" />
    </filter>
  </defs>
  <rect width="480" height="480" x="16" y="16" rx="104" fill="url(#pwaGrad)" filter="url(#pwaShadow)" />
  <g fill="#ffffff" transform="translate(76, 126) scale(15)">
    <!-- GraduationCap Lucide Icon (24x24 path) -->
    <path d="M21.42 10.922a1 1 0 0 0-.019-1.838L12.83 5.18a2 2 0 0 0-1.66 0L2.6 9.08a1 1 0 0 0 0 1.832l8.57 3.908a2 2 0 0 0 1.66 0z" />
    <path d="M22 10v6" stroke="#ffffff" stroke-width="2" stroke-linecap="round" fill="none" />
    <path d="M6 12.5V16a6 3 0 0 0 12 0v-3.5" stroke="#ffffff" stroke-width="2" stroke-linecap="round" fill="none" />
  </g>
</svg>
